<svg width="361" height="398" viewBox="0 0 361 398" fill="none" xmlns="http://www.w3.org/2000/svg">
<path d="M228.29 154.359H248.098L234.433 181.178H220.765L228.29 154.359Z" fill="#CECECE"/>
<path d="M215.532 174.613L211.537 169.412L181.52 189.484L185.516 194.686L215.532 174.613Z" fill="#CECECE"/>
<path d="M184.23 199.174L174.898 200.066L158.196 243.689L167.527 242.796L184.23 199.174Z" fill="#CECECE"/>
<path d="M215.506 179.448C222.156 179.448 229.994 174.645 233.013 168.72C236.032 162.795 233.088 157.992 226.438 157.992C219.789 157.992 211.951 162.795 208.932 168.72C205.913 174.645 208.856 179.448 215.506 179.448Z" fill="#CECECE"/>
<path d="M174.509 205.403C181.159 205.403 188.997 200.6 192.016 194.675C195.035 188.75 192.091 183.947 185.442 183.947C178.792 183.947 170.954 188.75 167.935 194.675C164.916 200.6 167.859 205.403 174.509 205.403Z" fill="#CECECE"/>
<path d="M156.976 258.87C163.626 258.87 171.464 254.067 174.483 248.142C177.502 242.217 174.558 237.414 167.909 237.414C161.259 237.414 153.421 242.217 150.402 248.142C147.383 254.067 150.326 258.87 156.976 258.87Z" fill="#CECECE"/>
<path d="M284.903 228.338V230.053C284.903 230.998 284.138 231.767 283.188 231.767C282.241 231.767 281.476 230.998 281.476 230.053V228.338C281.476 227.392 282.241 226.623 283.188 226.623C284.138 226.623 284.903 227.392 284.903 228.338Z" fill="#BDC3C7"/>
<path d="M284.903 168.337V170.052C284.903 170.998 284.136 171.765 283.189 171.765C282.241 171.765 281.474 170.998 281.474 170.052V168.337C281.474 167.392 282.241 166.623 283.189 166.623C284.136 166.623 284.903 167.392 284.903 168.337Z" fill="#BDC3C7"/>
<path d="M298.614 170.262V228.549H279.757C278.809 228.549 278.042 227.782 278.042 226.834V171.977C278.042 171.031 278.809 170.262 279.757 170.262H298.614Z" fill="#D4DBDF"/>
<path d="M290.537 187.239C290.537 186.293 289.772 185.526 288.822 185.526H278.537V188.954H288.824C289.772 188.954 290.537 188.187 290.537 187.239Z" fill="#BDC3C7"/>
<path d="M290.819 180.388C290.819 179.442 290.051 178.675 289.104 178.675H278.819V182.102H289.104C290.051 182.102 290.819 181.335 290.819 180.388Z" fill="#BDC3C7"/>
<path d="M289.555 211.221C289.555 210.273 288.788 209.506 287.84 209.506H277.555V212.934H287.84C288.788 212.934 289.555 212.166 289.555 211.221Z" fill="#BDC3C7"/>
<path d="M289.273 218.073C289.273 217.125 288.508 216.358 287.56 216.358H277.273V219.788H287.56C288.508 219.788 289.273 219.018 289.273 218.073Z" fill="#BDC3C7"/>
<path d="M170.463 257.703H148.13V327.033H170.463V257.703Z" fill="#676767"/>
<path d="M139.365 330.753C139.729 328.605 141.59 327.032 143.769 327.032H171.628C174.095 327.032 176.095 329.032 176.095 331.499V383.545C176.095 386.011 174.095 388.011 171.628 388.011H134.966C132.202 388.011 130.101 385.525 130.562 382.799L139.365 330.753Z" fill="#ED7161"/>
<path d="M130.311 381.879C130.554 380.484 131.765 379.467 133.18 379.467H173.181C174.79 379.467 176.094 380.772 176.094 382.38V394.809C176.094 396.417 174.79 397.722 173.181 397.722H131.01C129.201 397.722 127.829 396.09 128.14 394.308L130.311 381.879Z" fill="#676767"/>
<path d="M277.273 257.703H254.94V327.033H277.273V257.703Z" fill="#676767"/>
<path d="M286.078 330.757C285.717 328.607 283.855 327.032 281.674 327.032H253.969C251.503 327.032 249.502 329.032 249.502 331.499V383.545C249.502 386.011 251.503 388.011 253.969 388.011H290.44C293.203 388.011 295.305 385.527 294.844 382.803L286.078 330.757Z" fill="#ED7161"/>
<path d="M295.103 381.881C294.86 380.484 293.65 379.467 292.234 379.467H252.415C250.807 379.467 249.502 380.772 249.502 382.38V394.809C249.502 396.417 250.807 397.722 252.415 397.722H294.396C296.204 397.722 297.575 396.09 297.264 394.31L295.103 381.881Z" fill="#676767"/>
<path d="M104.823 124.481H124.631V154.582H110.963L104.823 124.481Z" fill="#676767"/>
<path d="M105.028 144.069L100.265 136.615L74.9973 152.76L79.76 160.214L105.028 144.069Z" fill="#676767"/>
<path d="M73.1571 167.672L79.1979 161.091L42.9013 127.775L36.8605 134.356L73.1571 167.672Z" fill="#676767"/>
<path d="M35.6978 111.332L35.7104 123.029L11.141 110.342L18.8471 103.639L35.6978 111.332Z" fill="#676767"/>
<path d="M22.3947 139.935L30.6672 132.517L6.09769 119.829L6.25702 130.593L22.3947 139.935Z" fill="#676767"/>
<path d="M104.823 152.64C111.472 152.64 116.863 147.25 116.863 140.6C116.863 133.95 111.472 128.56 104.823 128.56C98.1729 128.56 92.7822 133.95 92.7822 140.6C92.7822 147.25 98.1729 152.64 104.823 152.64Z" fill="#ED7161"/>
<path d="M71.0917 170.228C77.4798 172.075 84.1557 168.394 86.0028 162.006C87.8498 155.618 84.1686 148.942 77.7805 147.095C71.3924 145.248 64.7165 148.929 62.8695 155.317C61.0224 161.705 64.7036 168.381 71.0917 170.228Z" fill="#ED7161"/>
<path d="M26.8021 119.195C21.7846 123.559 21.2546 131.164 25.6185 136.181C29.9824 141.199 37.5875 141.729 42.6051 137.365C47.6227 133.001 48.1526 125.396 43.7887 120.378C39.4248 115.361 31.8197 114.831 26.8021 119.195Z" fill="#ED7161"/>
<path d="M320.58 124.481H300.771V154.582H314.439L320.58 124.481Z" fill="#676767"/>
<path d="M323.017 147.214L329.663 141.376L349.452 163.904L342.806 169.742L323.017 147.214Z" fill="#676767"/>
<path d="M320.58 152.64C313.93 152.64 308.539 147.25 308.539 140.6C308.539 133.95 313.93 128.56 320.58 128.56C327.23 128.56 332.62 133.95 332.62 140.6C332.62 147.25 327.23 152.64 320.58 152.64Z" fill="#ED7161"/>
<path d="M341.804 174.78L350.681 175.781L345.157 224.74L336.28 223.738L341.804 174.78Z" fill="#676767"/>
<path d="M348.351 181.77C341.701 181.77 336.31 176.38 336.31 169.73C336.31 163.08 341.701 157.689 348.351 157.689C355 157.689 360.391 163.08 360.391 169.73C360.391 176.38 355 181.77 348.351 181.77Z" fill="#ED7161"/>
<path d="M350.512 241.874L342.847 233.04L332.634 258.736H342.847L350.512 241.874Z" fill="#676767"/>
<path d="M321.705 229.021L332.815 229.19L322.602 254.887L315.659 246.661L321.705 229.021Z" fill="#676767"/>
<path d="M338.641 241.778C331.991 241.778 326.6 236.387 326.6 229.738C326.6 223.088 331.991 217.697 338.641 217.697C345.29 217.697 350.681 223.088 350.681 229.738C350.681 236.387 345.29 241.778 338.641 241.778Z" fill="#ED7161"/>
<path d="M217.848 33.5952H207.555V51.6559H217.848V33.5952Z" fill="#ED7161"/>
<path d="M216.488 0.775391L209.109 0.775391V19.6129H216.488V0.775391Z" fill="#ED7161"/>
<path d="M212.701 36.7022C218.118 36.7022 222.509 32.3114 222.509 26.895C222.509 21.4787 218.118 17.0879 212.701 17.0879C207.285 17.0879 202.894 21.4787 202.894 26.895C202.894 32.3114 207.285 36.7022 212.701 36.7022Z" fill="#676767"/>
<path d="M221.343 45.0532H204.254C179.478 45.0532 159.393 65.1379 159.393 89.9136V117.879C159.393 142.654 179.478 162.739 204.254 162.739H221.343C246.119 162.739 266.204 142.654 266.204 117.879V89.9136C266.204 65.1379 246.119 45.0532 221.343 45.0532Z" fill="#EEC065"/>
<path d="M247.366 90.6904H178.231V103.896H247.366V90.6904Z" fill="black"/>
<path d="M193.087 80.5916C198.611 80.5916 203.088 76.1138 203.088 70.5902C203.088 65.0666 198.611 60.5889 193.087 60.5889C187.563 60.5889 183.086 65.0666 183.086 70.5902C183.086 76.1138 187.563 80.5916 193.087 80.5916Z" fill="black"/>
<path d="M193.22 78.4577C197.639 78.4577 201.221 74.8755 201.221 70.4566C201.221 66.0378 197.639 62.4556 193.22 62.4556C188.801 62.4556 185.219 66.0378 185.219 70.4566C185.219 74.8755 188.801 78.4577 193.22 78.4577Z" fill="white"/>
<path d="M193.221 73.924C195.135 73.924 196.688 72.3717 196.688 70.4569C196.688 68.542 195.135 66.9897 193.221 66.9897C191.306 66.9897 189.753 68.542 189.753 70.4569C189.753 72.3717 191.306 73.924 193.221 73.924Z" fill="black"/>
<path d="M234.84 80.5916C240.364 80.5916 244.842 76.1138 244.842 70.5902C244.842 65.0666 240.364 60.5889 234.84 60.5889C229.317 60.5889 224.839 65.0666 224.839 70.5902C224.839 76.1138 229.317 80.5916 234.84 80.5916Z" fill="black"/>
<path d="M234.974 78.4577C239.393 78.4577 242.975 74.8755 242.975 70.4566C242.975 66.0378 239.393 62.4556 234.974 62.4556C230.555 62.4556 226.973 66.0378 226.973 70.4566C226.973 74.8755 230.555 78.4577 234.974 78.4577Z" fill="white"/>
<path d="M234.974 73.924C236.889 73.924 238.442 72.3717 238.442 70.4569C238.442 68.542 236.889 66.9897 234.974 66.9897C233.06 66.9897 231.507 68.542 231.507 70.4569C231.507 72.3717 233.06 73.924 234.974 73.924Z" fill="black"/>
<path d="M292.615 113.995H132.788C128.283 113.995 124.631 117.646 124.631 122.151L124.631 250.518C124.631 255.022 128.283 258.674 132.788 258.674H292.615C297.119 258.674 300.771 255.022 300.771 250.518V122.151C300.771 117.646 297.119 113.995 292.615 113.995Z" fill="#ED7161"/>
<path d="M189.689 137.687H152.402C150.471 137.687 148.906 139.252 148.906 141.182V178.274C148.906 180.205 150.471 181.77 152.402 181.77H189.689C191.619 181.77 193.184 180.205 193.184 178.274V141.182C193.184 139.252 191.619 137.687 189.689 137.687Z" fill="#FFF9F9"/>
<path d="M273.778 137.687H236.491C234.56 137.687 232.995 139.252 232.995 141.183V178.275C232.995 180.206 234.56 181.771 236.491 181.771H273.778C275.708 181.771 277.273 180.206 277.273 178.275V141.183C277.273 139.252 275.708 137.687 273.778 137.687Z" fill="#FFF9F9"/>
<path d="M273.777 204.297H152.402C150.471 204.297 148.906 205.862 148.906 207.793V210.318C148.906 212.248 150.471 213.813 152.402 213.813H273.777C275.708 213.813 277.273 212.248 277.273 210.318V207.793C277.273 205.862 275.708 204.297 273.777 204.297Z" fill="#FFF9F9"/>
<path d="M273.778 223.523H152.402C150.472 223.523 148.906 225.088 148.906 227.019V229.544C148.906 231.474 150.472 233.039 152.402 233.039H273.778C275.708 233.039 277.273 231.474 277.273 229.544V227.019C277.273 225.088 275.708 223.523 273.778 223.523Z" fill="#FFF9F9"/>
</svg>
