<svg width="29" height="30" viewBox="0 0 29 30" fill="none" xmlns="http://www.w3.org/2000/svg">
<circle cx="14.3149" cy="14.9682" r="13.5" transform="rotate(-3.01843 14.3149 14.9682)" fill="white"/>
<path d="M16.7909 13.4981C16.8278 14.1971 16.6667 15.4156 16.3078 17.1536C15.9479 18.8749 15.782 20.0019 15.8101 20.5345C15.8373 21.0504 15.9258 21.3045 16.0756 21.2966C16.1755 21.2913 16.5499 21.113 17.199 20.7617L17.4907 20.5961L17.9612 21.4475C17.8184 21.5885 17.6274 21.7655 17.3883 21.9784C17.1492 22.1913 16.6977 22.4905 16.0337 22.876C15.3689 23.2448 14.7452 23.4446 14.1627 23.4753C13.5801 23.506 13.1132 23.3554 12.7619 23.0235C12.4097 22.6748 12.2179 22.201 12.1863 21.6018C12.1538 20.986 12.3048 19.8932 12.6393 18.3234C12.9729 16.737 13.1274 15.7107 13.1028 15.2447C13.0659 14.5457 12.8149 13.8997 12.3497 13.3067L12.1092 13.0189L12.1171 12.6931C12.986 12.3969 14.4108 12.1966 16.3913 12.0922C16.6209 12.3304 16.7541 12.7991 16.7909 13.4981ZM13.7264 9.50391C13.3759 9.18859 13.1862 8.75632 13.1573 8.20708C13.1283 7.65784 13.3276 7.16333 13.755 6.72355C14.1991 6.28289 14.7207 6.04676 15.3199 6.01516C15.919 5.98357 16.3938 6.12543 16.7443 6.44075C17.0947 6.75607 17.2844 7.18835 17.3133 7.73758C17.3414 8.27018 17.1251 8.75724 16.6644 9.19878C16.2203 9.63944 15.707 9.87513 15.1245 9.90585C14.5419 9.93657 14.0759 9.80259 13.7264 9.50391Z" fill="#404040"/>
</svg>
