<svg width="84" height="83" viewBox="0 0 84 83" fill="none" xmlns="http://www.w3.org/2000/svg">
<ellipse cx="42" cy="41.5" rx="42" ry="41.5" fill="black"/>
<path d="M42.0051 30.6944C35.4784 30.6944 30.2139 35.7196 30.2139 41.9497C30.2139 48.1797 35.4784 53.2049 42.0051 53.2049C48.5318 53.2049 53.7963 48.1797 53.7963 41.9497C53.7963 35.7196 48.5318 30.6944 42.0051 30.6944ZM42.0051 49.267C37.7874 49.267 34.3393 45.9855 34.3393 41.9497C34.3393 37.9138 37.7771 34.6323 42.0051 34.6323C46.2331 34.6323 49.6709 37.9138 49.6709 41.9497C49.6709 45.9855 46.2229 49.267 42.0051 49.267ZM57.0289 30.234C57.0289 31.6936 55.7974 32.8593 54.2786 32.8593C52.7496 32.8593 51.5284 31.6838 51.5284 30.234C51.5284 28.7843 52.7598 27.6088 54.2786 27.6088C55.7974 27.6088 57.0289 28.7843 57.0289 30.234ZM64.8384 32.8985C64.6639 29.3818 63.8224 26.2668 61.1235 23.7003C58.4348 21.1338 55.1714 20.3306 51.4873 20.1543C47.6904 19.9486 36.3096 19.9486 32.5127 20.1543C28.8388 20.3208 25.5755 21.1241 22.8765 23.6905C20.1776 26.257 19.3463 29.372 19.1616 32.8887C18.9461 36.5131 18.9461 47.3765 19.1616 51.0009C19.3361 54.5175 20.1776 57.6325 22.8765 60.199C25.5755 62.7655 28.8286 63.5687 32.5127 63.745C36.3096 63.9508 47.6904 63.9508 51.4873 63.745C55.1714 63.5785 58.4348 62.7753 61.1235 60.199C63.8122 57.6325 64.6537 54.5175 64.8384 51.0009C65.0539 47.3765 65.0539 36.5229 64.8384 32.8985ZM59.9331 54.8898C59.1326 56.8097 57.583 58.2889 55.5614 59.0627C52.5341 60.2088 45.3506 59.9443 42.0051 59.9443C38.6597 59.9443 31.4659 60.199 28.4489 59.0627C26.4375 58.2986 24.8879 56.8195 24.0772 54.8898C22.8765 52 23.1536 45.1431 23.1536 41.9497C23.1536 38.7563 22.8868 31.8895 24.0772 29.0096C24.8776 27.0896 26.4272 25.6105 28.4489 24.8366C31.4762 23.6905 38.6597 23.955 42.0051 23.955C45.3506 23.955 52.5443 23.7003 55.5614 24.8366C57.5728 25.6007 59.1224 27.0798 59.9331 29.0096C61.1337 31.8993 60.8567 38.7563 60.8567 41.9497C60.8567 45.1431 61.1337 52.0098 59.9331 54.8898Z" fill="white"/>
</svg>
