<svg width="83" height="83" viewBox="0 0 83 83" fill="none" xmlns="http://www.w3.org/2000/svg">
<circle cx="41.5" cy="41.5" r="41.5" fill="black"/>
<path d="M61.6154 33.5622V51.6538C61.6154 53.337 60.9468 54.9511 59.7566 56.1413C58.5665 57.3314 56.9523 58 55.2692 58H27.3462C25.663 58 24.0489 57.3314 22.8587 56.1413C21.6686 54.9511 21 53.337 21 51.6538V33.5622L40.6629 45.1325C40.8583 45.2477 41.0809 45.3085 41.3077 45.3085C41.5345 45.3085 41.7571 45.2477 41.9525 45.1325L61.6154 33.5622ZM55.2692 25C56.8308 24.9998 58.3376 25.5752 59.5014 26.6163C60.6652 27.6574 61.4043 29.0911 61.5773 30.643L41.3077 42.5662L21.0381 30.643C21.2111 29.0911 21.9502 27.6574 23.114 26.6163C24.2778 25.5752 25.7846 24.9998 27.3462 25H55.2692Z" fill="white"/>
</svg>
