<svg width="521" height="196" viewBox="0 0 521 196" fill="none" xmlns="http://www.w3.org/2000/svg">
<rect width="521" height="196" rx="6" fill="#FFA900"/>
<path d="M71.6591 108.054V158H49.4189V34.3594L85.6064 33.7939C96.1611 33.6683 105.082 37.1865 112.37 44.3486C119.783 51.3851 123.49 60.2435 123.49 70.9238C123.49 80.8503 119.155 89.583 110.485 97.1221C101.941 104.661 92.3287 108.431 81.6484 108.431C80.1405 108.431 76.8108 108.305 71.6591 108.054ZM71.6591 48.1182V94.8604H77.8788C84.287 94.8604 89.7529 92.5358 94.2763 87.8867C98.9254 83.112 101.25 77.6462 101.25 71.4893C101.25 56.7881 94.2135 48.8721 80.1405 47.7412C79.261 47.6156 77.816 47.6784 75.8056 47.9297C73.9208 48.0553 72.5387 48.1182 71.6591 48.1182ZM170.768 110.715H166.725V158H145.983V42.6875C149.265 42.6875 155.417 42.5703 164.44 42.3359C171.003 42.2188 176.393 42.1602 180.612 42.1602C191.511 42.1602 199.831 45.1484 205.573 51.125C211.433 56.9844 214.304 65.1289 214.186 75.5586C214.069 83.8789 211.667 91.0859 206.979 97.1797C202.761 102.57 197.429 106.262 190.983 108.254C200.475 121.496 214.186 137.141 232.116 155.188L205.573 159.934C196.784 150.91 185.183 134.504 170.768 110.715ZM166.725 55.5195V98.0586H174.108C187.35 98.0586 193.972 90.5 193.972 75.3828C193.972 70.3438 192.975 66.0664 190.983 62.5508C188.054 57.3945 183.249 54.9336 176.569 55.168L166.725 55.5195ZM243.981 55.5H262.887V158H243.981V55.5ZM344.543 144.191V158H286.164L282.609 147.609L325.539 81.0273L287.258 81.3008V68.5859H343.586L346.867 80.3438L304.894 144.191H344.543ZM381.272 107.219H410.852V118.771L381.272 118.645V146.447H412.502V158H366.292V74.8457H412.883V85.8906H381.272V107.219ZM424.674 148.977L430.582 140.49C434.951 145.646 439.964 148.225 445.621 148.225C453.356 148.225 457.187 144.465 457.115 136.945C457.115 133.15 454.43 130.142 449.059 127.922C440.322 124.27 435.452 122.085 434.449 121.369C429.15 117.717 426.536 112.095 426.607 104.504C426.679 98.4883 429.078 93.5827 433.805 89.7871C437.815 86.5645 442.184 84.9531 446.91 84.9531C454.501 84.9531 461.412 87.5671 467.643 92.7949L463.238 102.033C458.225 97.3066 453.499 94.9434 449.059 94.9434C446.051 94.9434 443.831 95.5521 442.398 96.7695C440.608 98.2018 439.749 100.816 439.82 104.611C439.82 107.977 442.398 110.699 447.555 112.775C455.576 115.998 460.374 118.218 461.949 119.436C467.177 123.303 469.755 129.068 469.684 136.73C469.684 144.25 467.249 150.015 462.379 154.025C458.154 157.391 452.854 159.074 446.481 159.074C436.741 159.074 429.472 155.708 424.674 148.977Z" fill="white"/>
</svg>
