<svg width="292" height="200" viewBox="0 0 292 200" fill="none" xmlns="http://www.w3.org/2000/svg">
<path d="M161.389 79.5585V188.721C161.389 191.838 158.867 194.36 155.754 194.36H106.742L86.7582 190.954L85.9565 191.091L75.9608 192.796L66.7747 194.36H17.7662C14.6533 194.36 12.1309 191.838 12.1309 188.721V79.5585L48.4845 76.43L57.5611 75.6479L86.7621 73.1372L98.6975 74.1657L106.331 74.8227L142.845 77.963L150.479 78.62L161.389 79.5585Z" fill="#8379C1"/>
<path d="M150.778 79.5587V188.721C150.778 191.838 148.255 194.36 145.143 194.36H155.754C158.867 194.36 161.389 191.838 161.389 188.721V79.5587L153.266 78.8599L150.778 79.5587Z" fill="#6E61B6"/>
<path d="M57.5611 75.6479L12.1309 121.078V112.784L48.4845 76.4301L57.5611 75.6479Z" fill="#6E61B6"/>
<path d="M106.331 74.8228L12.1309 169.023V160.728L98.6975 74.1658L106.331 74.8228Z" fill="#6E61B6"/>
<path d="M150.479 78.6201L34.7385 194.36H26.4478L142.845 77.9631L150.479 78.6201Z" fill="#6E61B6"/>
<path d="M161.389 107.36V115.658L85.9565 191.091L75.9608 192.796L150.776 117.973L161.389 107.36Z" fill="#6E61B6"/>
<path d="M161.389 155.312V163.611L150.776 174.224L130.636 194.36H122.341L150.776 165.926L161.389 155.312Z" fill="#6E61B6"/>
<path d="M161.389 107.36V115.658L150.776 126.272V117.973L161.389 107.36Z" fill="#6354B1"/>
<path d="M150.776 165.926L161.389 155.312V163.611L150.776 174.224V165.926Z" fill="#6354B1"/>
<path d="M173.516 49.1375V73.9194C173.516 77.0323 170.994 79.5586 167.881 79.5586H5.63527C2.52238 79.5586 0 77.0323 0 73.9194V49.1375C0 46.0246 2.52238 43.5022 5.63527 43.5022H167.881C170.994 43.5022 173.516 46.0246 173.516 49.1375Z" fill="#CB97E7"/>
<path d="M150.07 16.1616C151.84 15.0443 152.914 13.0968 152.914 11.0031V6.09947C152.914 2.73082 150.183 0 146.815 0H139.713C136.868 0 134.085 0.825933 131.702 2.37769L106.74 18.625L102.095 30.4148L106.74 43.5019L150.07 16.1616Z" fill="#C53287"/>
<path d="M66.7766 43.5015L71.7784 30.4144L66.7766 18.6246L41.8148 2.37769C39.4313 0.825933 36.6481 0 33.8038 0H26.7017C23.333 0 20.6022 2.73082 20.6022 6.09947V11.0027C20.6022 13.0964 21.6761 15.044 23.4468 16.1612L66.7766 43.5015Z" fill="#C53287"/>
<path d="M106.742 79.5587V194.36H66.7747V79.5587L86.7582 74.458L106.742 79.5587Z" fill="#C53287"/>
<path d="M167.881 43.5022H157.27C160.382 43.5022 162.905 46.0246 162.905 49.1375V73.9194C162.905 77.0323 160.382 79.5586 157.27 79.5586H167.881C170.994 79.5586 173.516 77.0323 173.516 73.9194V49.1375C173.516 46.0246 170.994 43.5022 167.881 43.5022Z" fill="#BD80E1"/>
<path d="M106.74 15.228C106.74 11.8042 103.964 9.02881 100.541 9.02881H72.9754C69.5516 9.02881 66.7762 11.8042 66.7762 15.228L66.7743 79.5585H106.741L106.74 15.228Z" fill="#E759AA"/>
<path d="M88.8684 162.631L106.398 171.847C109.724 173.596 113.612 170.771 112.977 167.066L109.629 147.547C109.377 146.076 109.865 144.575 110.934 143.534L125.115 129.71C127.806 127.086 126.321 122.516 122.601 121.975L103.003 119.127C101.526 118.913 100.249 117.985 99.5887 116.647L90.8241 98.8878C89.1609 95.5176 84.3547 95.5176 82.6911 98.8878L73.9265 116.647C73.266 117.985 71.9892 118.913 70.5121 119.127L50.9138 121.975C47.1943 122.516 45.7091 127.086 48.4008 129.71L62.582 143.534C63.6508 144.575 64.1385 146.076 63.8863 147.547L60.5383 167.066C59.9029 170.771 63.7912 173.596 67.118 171.847L84.6472 162.631C85.969 161.937 87.5474 161.937 88.8684 162.631Z" fill="#FFD15B"/>
<rect x="234.536" y="88.0103" width="56.2199" height="14.4565" rx="7.22827" transform="rotate(-27.7405 234.536 88.0103)" fill="#FFB219"/>
<rect x="241.172" y="103.027" width="56.2199" height="14.4565" rx="7.22827" transform="rotate(-156.64 241.172 103.027)" fill="#FFB219"/>
<rect x="185.545" y="115.652" width="99.5895" height="81.9204" rx="4" fill="#FF0000"/>
<path d="M185.545 151.62L240.045 123.053L241.163 125.187L185.545 154.203L185.545 151.62Z" fill="#E40101"/>
<path d="M186.446 180.636L285.134 128.101L285.134 131.715L185.545 183.919L186.446 180.636Z" fill="#E40101"/>
<path d="M208.033 197.572L285.134 155.408L285.134 159.022L212.851 197.572L208.033 197.572Z" fill="#E40101"/>
<path d="M257.426 197.573L285.134 181.911L285.134 185.124L261.04 197.573L257.426 197.573Z" fill="#E40101"/>
<rect x="179.12" y="101.196" width="111.637" height="24.8974" rx="6" fill="#FC8D8D"/>
<path d="M225.702 79.6921C225.702 76.9307 227.94 74.6921 230.702 74.6921H242.387C245.148 74.6921 247.387 76.9307 247.387 79.6921V197.573H225.702V79.6921Z" fill="#EEC065"/>
<rect x="224.095" y="126.093" width="25.7005" height="71.4796" fill="#FFA900"/>
<path d="M237.803 176.444L248.256 181.993C250.24 183.046 252.558 181.345 252.179 179.114L250.183 167.36C250.033 166.474 250.323 165.57 250.961 164.943L259.417 156.618C261.022 155.038 260.137 152.285 257.918 151.96L246.232 150.245C245.351 150.116 244.589 149.557 244.196 148.751L238.969 138.056C237.977 136.027 235.111 136.027 234.119 138.056L228.893 148.751C228.499 149.557 227.737 150.116 226.857 150.245L215.17 151.96C212.952 152.285 212.066 155.038 213.671 156.618L222.128 164.943C222.765 165.57 223.056 166.474 222.905 167.36L220.909 179.114C220.53 181.345 222.849 183.046 224.833 181.993L235.286 176.444C236.074 176.025 237.015 176.025 237.803 176.444Z" fill="#DEFF59"/>
</svg>
