<svg width="201" height="201" viewBox="0 0 201 201" fill="none" xmlns="http://www.w3.org/2000/svg">
<path fill-rule="evenodd" clip-rule="evenodd" d="M0 24.2585H201V149.017H0V24.2585Z" fill="#B0D3F0"/>
<path fill-rule="evenodd" clip-rule="evenodd" d="M201 13.8621V27.7241H0V13.8621C0 6.20626 6.20626 0 13.8621 0H187.138C194.794 0 201 6.20626 201 13.8621Z" fill="#3B97D3"/>
<path d="M17.3276 17.3275C19.2415 17.3275 20.7931 15.776 20.7931 13.862C20.7931 11.948 19.2415 10.3965 17.3276 10.3965C15.4136 10.3965 13.8621 11.948 13.8621 13.862C13.8621 15.776 15.4136 17.3275 17.3276 17.3275Z" fill="#65DDB9"/>
<path d="M31.1896 17.3275C33.1036 17.3275 34.6552 15.776 34.6552 13.862C34.6552 11.948 33.1036 10.3965 31.1896 10.3965C29.2757 10.3965 27.7241 11.948 27.7241 13.862C27.7241 15.776 29.2757 17.3275 31.1896 17.3275Z" fill="#F3D55B"/>
<path d="M45.0517 17.3275C46.9657 17.3275 48.5172 15.776 48.5172 13.862C48.5172 11.948 46.9657 10.3965 45.0517 10.3965C43.1377 10.3965 41.5862 11.948 41.5862 13.862C41.5862 15.776 43.1377 17.3275 45.0517 17.3275Z" fill="#FF5364"/>
<path fill-rule="evenodd" clip-rule="evenodd" d="M69.3103 166.345H131.69V194.069H69.3103V166.345Z" fill="#3F5C6C"/>
<path fill-rule="evenodd" clip-rule="evenodd" d="M201 145.552V159.414C201 167.07 194.794 173.276 187.138 173.276H13.8621C6.20626 173.276 0 167.07 0 159.414V145.552H201Z" fill="#547580"/>
<path fill-rule="evenodd" clip-rule="evenodd" d="M159.414 197.534C159.414 199.448 157.862 201 155.948 201H45.0517C43.1377 201 41.5862 199.448 41.5862 197.534C41.5862 191.793 46.2409 187.138 51.9827 187.138H149.017C154.759 187.138 159.414 191.793 159.414 197.534Z" fill="#547580"/>
<path fill-rule="evenodd" clip-rule="evenodd" d="M110.897 162.879H90.1035C88.1895 162.879 86.6379 161.328 86.6379 159.414C86.6379 157.5 88.1895 155.948 90.1035 155.948H110.897C112.811 155.948 114.362 157.5 114.362 159.414C114.362 161.328 112.811 162.879 110.897 162.879Z" fill="#95A5A5"/>
<path fill-rule="evenodd" clip-rule="evenodd" d="M170.892 99.8763L169.415 101.172C166.041 104.157 164.937 108.956 166.667 113.115C168.109 116.828 167.311 121.039 164.611 123.968C161.91 126.897 157.778 128.033 153.959 126.897C152.919 126.588 152.036 126.349 151.211 126.11C145.654 124.513 139.7 125.049 134.518 127.614L131.152 129.285C124.653 132.468 117.046 132.468 110.547 129.285C104.046 126.101 96.4381 126.101 89.9371 129.285C83.4425 132.49 75.8257 132.49 69.3311 129.285L65.9626 127.614C60.7696 125.048 54.8057 124.511 49.2381 126.11C48.344 126.384 47.28 126.658 46.1191 126.997C42.2963 128.098 38.1802 126.931 35.504 123.988C32.8277 121.045 32.0565 116.836 33.515 113.135L33.9586 111.978C35.6371 107.769 34.3734 102.957 30.8431 100.115L30.4965 99.8416C26.5354 96.6094 24.2372 91.7678 24.2372 86.6553C24.2372 81.5428 26.5354 76.7012 30.4965 73.469L30.8431 73.1952C34.3715 70.3558 35.6364 65.5478 33.9621 61.3397L33.4838 60.1476C32.0293 56.4399 32.8075 52.2279 35.4909 49.2848C38.1743 46.3417 42.2967 45.1787 46.1226 46.2855C47.2904 46.5905 48.3543 46.8989 49.2831 47.1727C54.8393 48.7701 60.7919 48.2337 65.973 45.6686L69.3415 43.9982C75.8413 40.8148 83.4477 40.8148 89.9475 43.9982C96.4485 47.1818 104.056 47.1818 110.557 43.9982C117.052 40.7926 124.668 40.7926 131.163 43.9982L134.528 45.6686C139.722 48.2352 145.687 48.7715 151.256 47.1727C152.15 46.8989 153.214 46.6251 154.375 46.2855C158.198 45.1846 162.314 46.3515 164.99 49.2948C167.666 52.2382 168.438 56.4465 166.979 60.1476L166.532 61.305C164.844 65.5121 166.098 70.3282 169.623 73.1779L170.483 73.871C174.362 77.0448 176.646 81.767 176.724 86.7787C176.803 91.7904 174.669 96.5821 170.892 99.8763Z" fill="#FF5364"/>
<path fill-rule="evenodd" clip-rule="evenodd" d="M83.9244 65.928C83.0269 65.7277 82.0865 65.8923 81.3104 66.3857C80.5343 66.879 79.9861 67.6606 79.7866 68.5584L74.7408 91.2679L68.8148 81.3877C68.1434 80.4082 67.0323 79.8228 65.8448 79.8228C64.6573 79.8228 63.5462 80.4082 62.8749 81.3877L56.9488 91.2679L51.903 68.5584C51.4877 66.6884 49.6351 65.5092 47.7652 65.9246C45.8953 66.3399 44.7161 68.1925 45.1314 70.0624L52.0624 101.252C52.3673 102.638 53.4868 103.699 54.8877 103.928C56.2885 104.157 57.6875 103.509 58.4182 102.292L65.8448 89.9094L73.2714 102.285C73.8978 103.327 75.025 103.965 76.2414 103.966C76.4271 103.966 76.6126 103.951 76.7958 103.921C78.197 103.695 79.3188 102.637 79.6272 101.252L86.5582 70.0624C86.7574 69.1649 86.5918 68.225 86.0978 67.4496C85.6039 66.6742 84.822 66.1268 83.9244 65.928Z" fill="white"/>
<path fill-rule="evenodd" clip-rule="evenodd" d="M97.0345 65.8447C95.1205 65.8447 93.5689 67.3963 93.5689 69.3102V100.5C93.5689 102.414 95.1205 103.965 97.0345 103.965C98.9484 103.965 100.5 102.414 100.5 100.5V69.3102C100.5 67.3963 98.9484 65.8447 97.0345 65.8447Z" fill="white"/>
<path fill-rule="evenodd" clip-rule="evenodd" d="M135.155 65.8447C133.241 65.8447 131.69 67.3963 131.69 69.3102V89.0637L117.245 67.3973C116.399 66.1282 114.823 65.5616 113.362 66.0017C111.902 66.4417 110.901 67.7849 110.897 69.3102V100.5C110.897 102.414 112.448 103.965 114.362 103.965C116.276 103.965 117.828 102.414 117.828 100.5V80.7464L132.272 102.413C133.118 103.682 134.695 104.249 136.155 103.808C137.615 103.368 138.616 102.025 138.621 100.5V69.3102C138.621 67.3963 137.069 65.8447 135.155 65.8447Z" fill="white"/>
<path fill-rule="evenodd" clip-rule="evenodd" d="M152.483 65.8447C150.569 65.8447 149.017 67.3963 149.017 69.3102V90.1033C149.017 92.0173 150.569 93.5689 152.483 93.5689C154.397 93.5689 155.948 92.0173 155.948 90.1033V69.3102C155.948 67.3963 154.397 65.8447 152.483 65.8447Z" fill="white"/>
<path d="M152.483 103.965C154.397 103.965 155.948 102.414 155.948 100.5C155.948 98.586 154.397 97.0344 152.483 97.0344C150.569 97.0344 149.017 98.586 149.017 100.5C149.017 102.414 150.569 103.965 152.483 103.965Z" fill="white"/>
</svg>
