<svg width="209" height="209" viewBox="0 0 209 209" fill="none" xmlns="http://www.w3.org/2000/svg">
<path d="M69.6668 81.6648V192.6H139.334V81.6648C139.334 77.0198 135.568 73.2542 130.923 73.2542H78.077C73.4321 73.2542 69.6668 77.0198 69.6668 81.6648Z" fill="#FED402"/>
<path d="M130.923 73.2542H126.442C126.616 73.9273 126.718 74.6294 126.718 75.3568V129.241C126.718 160.749 101.175 186.292 69.6668 186.292V192.6H139.334V81.6648C139.333 77.0198 135.568 73.2542 130.923 73.2542Z" fill="#FAC600"/>
<path d="M139.333 151.051V192.6H202.692V151.051C202.692 146.406 198.926 142.64 194.281 142.64H147.744C143.099 142.64 139.333 146.406 139.333 151.051Z" fill="#FD4755"/>
<path d="M194.282 142.64H189.801C189.974 143.314 190.077 144.016 190.077 144.743C190.077 167.69 171.475 186.292 148.528 186.292H139.334V192.6H202.692V151.051C202.692 146.406 198.927 142.64 194.282 142.64Z" fill="#FB2B3A"/>
<path d="M69.6668 132.128V192.6H6.30795V132.128C6.30795 127.483 10.0736 123.717 14.7186 123.717H61.2566C65.9011 123.717 69.6668 127.483 69.6668 132.128Z" fill="#FE9738"/>
<path d="M61.2562 123.717H56.7753C56.9488 124.39 57.0509 125.092 57.0509 125.82V135.549C57.0509 163.574 34.3323 186.292 6.30795 186.292V192.6H69.6668V132.128C69.6668 127.483 65.9011 123.717 61.2562 123.717Z" fill="#FE860A"/>
<path d="M205.356 209H3.64362C1.63118 209 0 207.369 0 205.356V196.243C0 194.231 1.63118 192.6 3.64362 192.6H205.356C207.369 192.6 209 194.231 209 196.243V205.356C209 207.369 207.369 209 205.356 209Z" fill="#97D729"/>
<path d="M205.356 192.6H192.741C194.753 192.6 196.384 194.231 196.384 196.243V205.356C196.384 207.369 194.753 209 192.741 209H205.356C207.369 209 209 207.369 209 205.356V196.243C209 194.231 207.369 192.6 205.356 192.6Z" fill="#8BC727"/>
<path d="M119.874 35.8095H114.498C112.757 35.8095 111.345 34.3975 111.345 32.6557V6.92013C111.345 5.17792 112.757 3.76636 114.498 3.76636H142.344C144.349 3.76636 146.18 4.78237 147.241 6.48458C148.303 8.18638 148.409 10.2776 147.526 12.0782L142.944 21.426C138.66 30.1636 129.605 35.8095 119.874 35.8095ZM117.652 29.5019H119.874C127.216 29.5019 134.048 25.2419 137.28 18.6494L141.483 10.0739H117.652V29.5019Z" fill="#FEDF30"/>
<path d="M94.5019 35.8095H89.1258C79.3951 35.8095 70.3399 30.1636 66.0567 21.4264L61.4742 12.0782C60.5916 10.2776 60.6978 8.18638 61.7591 6.48458C62.8204 4.78237 64.6512 3.76636 66.6567 3.76636H94.5019C96.2437 3.76636 97.6557 5.17833 97.6557 6.92013V32.6557C97.6557 34.3979 96.2437 35.8095 94.5019 35.8095ZM67.5168 10.0739L71.7205 18.6499C74.9522 25.2419 81.7839 29.5019 89.1258 29.5019H91.3477V10.0739H67.5168Z" fill="#FEDF30"/>
<path d="M97.1724 41.8882H111.828V57.971H97.1724V41.8882Z" fill="#FEDF30"/>
<path d="M104.5 41.8882H111.828V57.971H104.5V41.8882Z" fill="#FED402"/>
<path d="M123.308 73.2542H85.692V62.8561C85.692 60.1583 87.8792 57.9707 90.5774 57.9707H118.423C121.121 57.9707 123.308 60.1579 123.308 62.8561V73.2542H123.308Z" fill="#918291"/>
<path d="M118.423 57.9709H105.807C108.505 57.9709 110.692 60.1581 110.692 62.8563V73.2545H123.308V62.8563C123.308 60.1581 121.121 57.9709 118.423 57.9709Z" fill="#7A6D79"/>
<path d="M111.828 41.8882H97.1719C87.6784 32.5105 82.3346 19.7219 82.3346 6.37736V1.62832C82.3346 0.729051 83.0636 0 83.9629 0H125.037C125.936 0 126.665 0.729051 126.665 1.62832V6.37736C126.665 19.7219 121.322 32.5105 111.828 41.8882Z" fill="#FED402"/>
<path d="M125.037 0H120.357V0.0693945C120.357 6.75209 119.017 13.2952 116.487 19.3403C112.341 29.2469 102.513 35.5802 91.773 35.5802C93.3846 37.8139 95.1864 39.9268 97.1723 41.8882H111.828C121.322 32.5105 126.665 19.7219 126.665 6.37736V1.62832C126.665 0.729051 125.936 0 125.037 0V0Z" fill="#FAC600"/>
<path d="M107.363 149.473C105.621 149.473 104.209 148.061 104.209 146.32V122.689H101.638C99.8959 122.689 98.4839 121.277 98.4839 119.535C98.4839 117.793 99.8959 116.381 101.638 116.381H107.363C109.105 116.381 110.517 117.793 110.517 119.535V146.32C110.517 148.061 109.105 149.473 107.363 149.473Z" fill="white"/>
<path d="M36.7714 174.973C31.5121 174.973 31.1133 174.84 30.6977 174.701C29.6597 174.355 28.8837 173.568 28.5681 172.543C28.0326 170.802 28.8098 169.784 30.5128 167.555C31.8721 165.775 34.4034 162.461 38.645 156.4C39.8566 154.669 40.6383 153.13 40.9701 151.821L41.0514 151.187C40.962 149.226 39.3382 147.658 37.3555 147.658C35.5908 147.658 34.0642 148.911 33.7254 150.637C33.3898 152.346 31.7325 153.457 30.023 153.124C28.3138 152.789 27.2002 151.131 27.5358 149.422C28.4542 144.745 32.584 141.351 37.3555 141.351C42.874 141.351 47.3634 145.84 47.3634 151.358C47.3634 151.492 47.3549 151.625 47.3381 151.758L47.2059 152.794C47.1924 152.899 47.1736 153.004 47.1499 153.107C46.6564 155.235 45.5339 157.56 43.8133 160.018C41.0959 163.901 39.0655 166.68 37.5882 168.659C39.9166 168.653 42.6891 168.631 45.3053 168.599C45.3187 168.598 45.3322 168.598 45.3457 168.598C47.0691 168.598 48.477 169.984 48.4986 171.713C48.5203 173.455 47.1263 174.884 45.3845 174.906C41.5898 174.953 38.8144 174.973 36.7714 174.973Z" fill="white"/>
<path d="M48.4982 171.712C48.4766 169.984 47.0687 168.597 45.3452 168.597C45.3318 168.597 45.3183 168.597 45.3048 168.598C45.1395 168.6 44.9726 168.602 44.806 168.604C42.8185 170.917 40.6252 173.047 38.256 174.969C40.1076 174.962 42.4372 174.942 45.3836 174.905C47.1258 174.883 48.5198 173.454 48.4982 171.712Z" fill="#EFEDEF"/>
<path d="M181.021 160.766C181.021 155.248 176.531 150.759 171.013 150.759C166.241 150.759 162.111 154.153 161.193 158.83C160.857 160.539 161.971 162.197 163.68 162.533C165.39 162.867 167.047 161.755 167.382 160.045C167.721 158.32 169.248 157.066 171.013 157.066C173.053 157.066 174.713 158.726 174.713 160.766C174.713 162.806 173.053 164.465 171.013 164.465C169.271 164.465 167.859 165.877 167.859 167.619C167.859 169.361 169.271 170.773 171.013 170.773C173.053 170.773 174.713 172.433 174.713 174.473C174.713 176.513 173.053 178.173 171.013 178.173C169.177 178.173 167.602 176.805 167.349 174.992C167.325 174.823 167.313 174.648 167.313 174.473C167.313 172.73 165.901 171.319 164.159 171.319C162.417 171.319 161.005 172.731 161.005 174.473C161.005 174.939 161.037 175.408 161.101 175.865C161.787 180.776 166.048 184.48 171.013 184.48C176.531 184.48 181.021 179.991 181.021 174.473C181.021 171.822 179.983 169.411 178.295 167.618C179.983 165.828 181.021 163.416 181.021 160.766Z" fill="white"/>
<path d="M181.021 174.474C181.021 173.358 180.835 172.285 180.496 171.282C176.433 176.171 171.27 180.111 165.387 182.727C167.003 183.832 168.944 184.482 171.013 184.482C176.531 184.482 181.021 179.992 181.021 174.474Z" fill="#EFEDEF"/>
</svg>
