<svg width="768" height="768" viewBox="0 0 768 768" fill="none" xmlns="http://www.w3.org/2000/svg">
<path d="M210.998 444.281C201.523 444.281 193.855 436.614 193.855 427.139C193.855 417.663 201.523 409.996 210.998 409.996C220.456 409.996 228.141 402.312 228.141 392.854C228.141 383.395 220.456 375.711 210.998 375.711H176.713C129.453 375.711 91 337.258 91 289.998V221.428C91 211.952 98.6673 204.285 108.143 204.285H176.713C186.188 204.285 193.855 211.952 193.855 221.428C193.855 230.903 186.188 238.57 176.713 238.57H125.285V289.998C125.285 318.356 148.354 341.426 176.713 341.426H210.998C239.356 341.426 262.426 364.495 262.426 392.854C262.426 421.212 239.356 444.281 210.998 444.281Z" fill="#FABE2C"/>
<path d="M556.135 444.281C527.777 444.281 504.708 421.212 504.708 392.854C504.708 364.495 527.777 341.426 556.135 341.426H590.42C618.779 341.426 641.848 318.356 641.848 289.998V238.57H590.42C580.945 238.57 573.278 230.903 573.278 221.428C573.278 211.952 580.945 204.285 590.42 204.285H658.991C668.466 204.285 676.133 211.952 676.133 221.428V289.998C676.133 337.258 637.68 375.711 590.42 375.711H556.135C546.677 375.711 538.993 383.395 538.993 392.854C538.993 402.312 546.677 409.996 556.135 409.996C565.611 409.996 573.278 417.663 573.278 427.139C573.278 436.614 565.611 444.281 556.135 444.281Z" fill="#FF9100"/>
<path d="M418.995 547.137H348.139C338.663 547.137 330.996 539.469 330.996 529.994C330.996 481.429 305.735 436.045 265.054 410.867C198.978 369.65 159.57 298.854 159.57 221.428V187.143C159.57 177.667 167.238 170 176.713 170H590.42C599.896 170 607.563 177.667 607.563 187.143V221.428C607.563 298.854 568.156 369.65 502.129 410.833C461.399 436.045 436.137 481.429 436.137 529.307C436.137 538.783 428.47 547.137 418.995 547.137Z" fill="#FED843"/>
<path d="M383.567 547.137H418.995C428.47 547.137 436.137 538.783 436.137 529.307C436.137 481.428 461.399 436.045 502.13 410.833C568.156 369.65 607.563 298.854 607.563 221.428V187.143C607.563 177.667 599.896 170 590.421 170H383.567V547.137Z" fill="#FABE2C"/>
<path d="M434.995 289.998C434.995 311.598 421.279 331.14 401.052 338.339C401.052 347.94 393.168 357.196 383.567 357.196C374.309 357.196 366.424 351.024 366.424 341.426C366.424 327.025 372.938 315.025 383.567 308.855C385.281 307.825 387.338 306.798 389.394 306.111C396.251 303.711 400.709 297.197 400.709 289.998C400.709 280.397 393.168 272.855 383.567 272.855C373.966 272.855 366.424 280.397 366.424 289.998C366.424 299.597 358.883 307.141 349.282 307.141C339.681 307.141 332.139 299.597 332.139 289.998C332.139 261.54 355.109 238.57 383.567 238.57C412.025 238.57 434.995 261.54 434.995 289.998Z" fill="#474F54"/>
<path d="M383.567 409.996C393.034 409.996 400.709 402.321 400.709 392.854C400.709 383.386 393.034 375.711 383.567 375.711C374.099 375.711 366.424 383.386 366.424 392.854C366.424 402.321 374.099 409.996 383.567 409.996Z" fill="#474F54"/>
<path d="M400.709 392.854C400.709 383.384 393.034 375.711 383.567 375.711V409.996C393.034 409.996 400.709 402.321 400.709 392.854Z" fill="#32393F"/>
<path d="M434.995 289.998C434.995 311.598 421.279 331.14 401.052 338.339C401.052 347.94 393.168 357.196 383.567 357.196V308.855C385.281 307.825 387.338 306.798 389.394 306.111C396.251 303.711 400.709 297.197 400.709 289.998C400.709 280.397 393.168 272.855 383.567 272.855V238.57C412.025 238.57 434.995 261.54 434.995 289.998Z" fill="#32393F"/>
<path d="M487.565 632.85H279.568C270.093 632.85 262.426 625.182 262.426 615.707V547.137C262.426 537.661 270.093 529.994 279.568 529.994H487.565C497.04 529.994 504.708 537.661 504.708 547.137V615.707C504.708 625.182 497.04 632.85 487.565 632.85Z" fill="#575F64"/>
<path d="M383.567 632.85H487.565C497.04 632.85 504.708 625.182 504.708 615.707V547.137C504.708 537.661 497.04 529.994 487.565 529.994H383.567V632.85Z" fill="#474F54"/>
<path d="M521.85 547.137H245.283C235.808 547.137 228.141 539.469 228.141 529.994C228.141 520.519 235.808 512.852 245.283 512.852H521.85C531.325 512.852 538.993 520.519 538.993 529.994C538.993 539.469 531.325 547.137 521.85 547.137Z" fill="#474F54"/>
<path d="M521.85 649.992H245.283C235.808 649.992 228.141 642.325 228.141 632.85C228.141 623.374 235.808 615.707 245.283 615.707H521.85C531.325 615.707 538.993 623.374 538.993 632.85C538.993 642.325 531.325 649.992 521.85 649.992Z" fill="#474F54"/>
<path d="M383.566 649.992H521.85C531.325 649.992 538.992 642.325 538.992 632.85C538.992 623.374 531.325 615.707 521.85 615.707H383.566V649.992Z" fill="#32393F"/>
<path d="M383.567 547.137H521.85C531.326 547.137 538.993 539.469 538.993 529.994C538.993 520.519 531.326 512.852 521.85 512.852H383.567V547.137Z" fill="#32393F"/>
</svg>
