<svg width="768" height="768" viewBox="0 0 768 768" fill="none" xmlns="http://www.w3.org/2000/svg">
<path d="M383.917 670.833C545.69 670.833 676.833 539.69 676.833 377.917C676.833 216.143 545.69 85 383.917 85C222.143 85 91 216.143 91 377.917C91 539.69 222.143 670.833 383.917 670.833Z" fill="#FFF59D"/>
<path d="M574.311 377.917C574.311 265.144 477.649 175.805 361.947 188.986C274.072 199.238 203.772 269.538 194.984 357.413C187.661 424.784 215.489 484.832 262.355 522.911C282.859 540.486 296.041 565.384 296.041 593.211V597.604H471.791V596.14C471.791 569.777 483.507 543.415 504.011 525.84C546.484 490.69 574.311 437.965 574.311 377.917Z" fill="#FBC02D"/>
<path d="M480.581 351.552L436.643 322.26C432.249 319.331 424.926 319.331 420.533 322.26L383.918 345.693L348.768 322.26C344.374 319.331 337.051 319.331 332.658 322.26L288.72 351.552C285.791 354.481 282.862 357.41 282.862 361.804C282.862 366.197 282.862 370.591 285.791 373.52L341.445 442.356V597.602H370.737V436.497C370.737 433.568 369.272 430.639 367.808 427.71L319.476 367.662L341.445 353.016L376.595 376.449C380.989 379.379 388.312 379.379 392.706 376.449L427.856 353.016L449.824 367.662L401.493 427.71C400.028 430.639 398.564 433.568 398.564 436.497V597.602H427.856V442.356L483.51 373.52C486.439 370.591 487.903 366.197 486.439 361.804C484.974 357.41 483.51 353.016 480.581 351.552Z" fill="#FFF59D"/>
<path d="M383.917 744.062C408.183 744.062 427.854 724.391 427.854 700.125C427.854 675.859 408.183 656.188 383.917 656.188C359.65 656.188 339.979 675.859 339.979 700.125C339.979 724.391 359.65 744.062 383.917 744.062Z" fill="#5C6BC0"/>
<path d="M413.208 714.771H354.625C322.404 714.771 296.042 688.408 296.042 656.188V582.958H471.792V656.188C471.792 688.408 445.429 714.771 413.208 714.771Z" fill="#9FA8DA"/>
<path d="M471.79 656.188L301.898 679.621C306.292 689.873 315.08 700.125 325.332 705.984L463.003 686.944C468.861 678.157 471.79 667.905 471.79 656.188Z" fill="#5C6BC0"/>
<path d="M296.042 622.502V651.794L471.792 626.896V597.604L296.042 622.502Z" fill="#5C6BC0"/>
</svg>
