<svg width="768" height="768" viewBox="0 0 768 768" fill="none" xmlns="http://www.w3.org/2000/svg">
<path d="M264.13 198.803L150.235 269.332V589.764L259.56 600.176L384.5 589.764L394.912 366.953L368.882 175.501L264.13 198.803Z" fill="#ECF1FD"/>
<path d="M618.765 269.332L509.441 200.364L400.118 175.501L384.5 589.764L509.441 600.176L618.765 589.764V269.332Z" fill="#DBE3FD"/>
<path d="M322.03 195.606V315.113L301.836 335.313L279.748 313.223L290.794 302.181V209.006L302.768 195.606H322.03Z" fill="#98DBFD"/>
<path d="M488.097 334.33L467.166 335.314L446.971 315.113V195.606L464.497 196.634L478.206 209.006V302.181L489.254 313.224L488.097 334.33Z" fill="#65B0FB"/>
<path d="M279.749 469.402L290.794 458.355V408.822L279.753 397.78L301.836 375.69L322.03 395.884V471.292L301.835 491.487L279.749 469.402Z" fill="#98DBFD"/>
<path d="M488.011 486.948L467.168 491.489L446.971 471.292V395.884L467.165 375.69L485.32 381.964L489.252 397.776L478.206 408.822V458.355L489.252 469.402L488.011 486.948Z" fill="#65B0FB"/>
<path d="M259.559 558.53C233.724 558.53 212.706 537.513 212.706 511.677C212.706 485.841 233.724 464.824 259.559 464.824C285.394 464.824 306.412 485.841 306.412 511.677C306.412 537.513 285.395 558.53 259.559 558.53Z" fill="#4D5E7F"/>
<path d="M509.441 558.53C483.605 558.53 462.588 537.513 462.588 511.677C462.588 485.841 483.605 464.824 509.441 464.824C535.277 464.824 556.294 485.841 556.294 511.677C556.294 537.513 535.277 558.53 509.441 558.53Z" fill="#3D4566"/>
<path d="M259.559 402.352C233.724 402.352 212.706 381.335 212.706 355.499C212.706 329.665 233.724 308.646 259.559 308.646C285.394 308.646 306.412 329.665 306.412 355.499C306.412 381.335 285.395 402.352 259.559 402.352Z" fill="#4D5E7F"/>
<path d="M509.441 402.352C483.605 402.352 462.588 381.335 462.588 355.499C462.588 329.665 483.605 308.646 509.441 308.646C535.277 308.646 556.294 329.665 556.294 355.499C556.294 381.335 535.277 402.352 509.441 402.352Z" fill="#3D4566"/>
<path d="M368.883 175.501V311.324L377.212 314.177L384.5 308.647L394.912 246.53L384.5 168.796L375.57 162.218L368.883 175.501Z" fill="#98DBFD"/>
<path d="M400.118 175.502L392.309 161.737L384.5 168.796V308.647L391.138 315.285L400.118 311.323V175.502Z" fill="#65B0FB"/>
<path d="M150.235 589.766V621.001H384.5L394.912 605.383L384.5 589.766H150.235Z" fill="#DBE3FD"/>
<path d="M384.5 589.766H618.765V621.001H384.5V589.766Z" fill="#C3D3FC"/>
<path d="M603.147 90H540.677V157.558L567.487 179.715L603.147 184.299V90Z" fill="#CC295F"/>
<path d="M119 204.356V282.444L384.5 168.793L394.912 131.387L384.5 90.7051L119 204.356Z" fill="#FF6C6C"/>
<path d="M384.5 90.7051V168.793L650 282.444V204.356L384.5 90.7051Z" fill="#FF3377"/>
<path d="M368.883 467.5L377.148 471.135L384.5 464.824L394.912 433.588L384.5 402.353L377.473 396.713L368.883 399.676V467.5Z" fill="#98DBFD"/>
<path d="M391.094 469.249L400.118 467.499V399.676L391.007 396.713L384.5 402.353V464.824L391.094 469.249Z" fill="#65B0FB"/>
<path d="M337.647 511.677C337.647 537.513 358.665 558.53 384.5 558.53L394.912 514.801L384.5 464.824C358.665 464.824 337.647 485.841 337.647 511.677Z" fill="#4D5E7F"/>
<path d="M384.5 464.824V558.53C410.336 558.53 431.353 537.513 431.353 511.677C431.353 485.841 410.336 464.824 384.5 464.824Z" fill="#3D4566"/>
<path d="M337.647 355.499C337.647 381.335 358.665 402.352 384.5 402.352L394.912 356.887L384.5 308.646C358.665 308.646 337.647 329.665 337.647 355.499V355.499Z" fill="#4D5E7F"/>
<path d="M431.353 355.499C431.353 329.665 410.336 308.646 384.5 308.646V402.352C410.336 402.352 431.353 381.335 431.353 355.499Z" fill="#3D4566"/>
</svg>
