<svg width="768" height="768" viewBox="0 0 768 768" fill="none" xmlns="http://www.w3.org/2000/svg">
<path d="M660.507 291.925V564.527C660.507 591.179 638.9 612.791 612.243 612.791H177.481V291.925C177.481 265.272 199.087 243.661 225.744 243.661H612.243C638.9 243.661 660.507 265.272 660.507 291.925ZM484.793 429.441L413.172 294.122L341.551 429.441L363.678 509.393H348.755V566.864H477.589V509.393H464.318V509.139L484.793 429.441Z" fill="white"/>
<path d="M413.172 395.606C403.785 395.601 396.17 403.211 396.165 412.598C396.16 421.985 403.77 429.6 413.157 429.605C422.549 429.61 430.164 422 430.164 412.613C430.169 403.221 422.559 395.611 413.172 395.606V395.606ZM413.172 294.123L484.793 429.442L464.318 509.14V509.393H363.678L341.551 429.442L413.172 294.123Z" fill="#00ACEA"/>
<path d="M363.678 509.393H477.589V566.864H348.754V509.393H363.678Z" fill="#FEDB41"/>
<path d="M413.172 395.605C422.559 395.601 430.174 403.211 430.179 412.598C430.184 421.985 422.574 429.6 413.187 429.605C403.795 429.61 396.18 422 396.18 412.613C396.175 403.221 403.785 395.61 413.172 395.605Z" fill="#FEDB41"/>
<path d="M329.158 171.965L387.656 243.661H225.744C199.087 243.661 177.481 265.272 177.481 291.924V612.791H160.757C134.1 612.791 112.493 591.179 112.493 564.527V202.472C112.493 175.82 134.1 154.209 160.757 154.209H291.764C306.261 154.214 319.994 160.733 329.158 171.965Z" fill="#00ACEA"/>
<path d="M612.243 233.629H392.478L337.031 165.308C325.997 151.59 309.372 143.562 291.764 143.453H160.757C128.543 143.453 102 170.259 102 202.473V564.527C102 596.746 128.543 623.547 160.757 623.547H612.243C644.457 623.547 671 596.746 671 564.527V291.925C671 259.711 644.457 233.629 612.243 233.629V233.629ZM166.775 291.925V603.225H160.757C139.745 603.225 122.321 585.533 122.321 564.527V202.473C122.321 181.466 139.745 163.775 160.757 163.775H291.764C303.264 163.894 314.1 169.172 321.284 178.157L366.253 233.629H225.744C193.531 233.629 166.775 259.711 166.775 291.925ZM650.679 564.527C650.679 585.533 633.255 603.225 612.243 603.225H187.096V291.925C187.096 270.918 204.733 253.951 225.744 253.951H612.243C633.255 253.951 650.679 270.918 650.679 291.925V564.527Z" fill="#083863"/>
<path d="M422.152 289.37C420.39 286.046 416.937 283.967 413.172 283.967C409.406 283.967 405.953 286.046 404.192 289.37L332.571 424.689C331.36 426.951 331.067 429.6 331.757 432.071L350.322 499.078H348.754C343.044 499.123 338.39 503.682 338.236 509.393V566.864C338.236 572.475 343.143 576.554 348.754 576.554H477.589C483.2 576.554 488.107 572.475 488.107 566.864V509.393C487.953 503.682 483.3 499.123 477.589 499.078H477.351L494.631 431.892C495.261 429.457 494.954 426.872 493.773 424.649L422.152 289.37ZM420.003 412.613C419.998 416.384 416.937 419.435 413.162 419.43C409.391 419.425 406.335 416.364 406.34 412.593C406.34 408.823 409.401 405.766 413.172 405.766C416.947 405.771 420.008 408.832 420.003 412.613ZM467.786 556.232H358.558V519.4H467.786V556.232ZM371.408 499.078L352.421 430.548L403.011 335.043V387.439C390.955 392.301 384.039 405.032 386.515 417.793C388.99 430.558 400.168 439.776 413.172 439.776C426.175 439.776 437.353 430.558 439.829 417.793C442.304 405.032 435.388 392.301 423.332 387.439V335.043L473.972 430.642L456.375 499.078H371.408Z" fill="#083863"/>
</svg>
