<svg width="1440" height="420" viewBox="0 0 1440 420" fill="none" xmlns="http://www.w3.org/2000/svg">
<path d="M156.592 63.5678L0 119.483V320.069L137.106 262.211C261.629 209.662 403.504 217.98 521.033 284.72L566.863 310.745C687.76 379.396 834.189 386.124 960.872 328.848L1007.06 307.964C1130.51 252.152 1272.91 257.04 1392.24 321.187L1440 346.862V157.138L1363.59 123.997C1260.5 79.2831 1144.1 76.1996 1038.78 115.392L939.66 152.28C824.768 195.037 697.169 187.33 588.259 131.056L502.556 86.7739C395.435 31.4248 270.146 23.0208 156.592 63.5678Z" fill="black"/>
<path d="M207.5 163L283.5 137.5" stroke="white" stroke-width="11"/>
<path d="M414 153.555L525.627 208.511" stroke="white" stroke-width="11"/>
<path d="M651.753 245.39L727.874 270.525" stroke="white" stroke-width="11"/>
<path d="M849.039 260.11L926.588 239.805" stroke="white" stroke-width="11"/>
<path d="M1070 204.442L1147.55 184.137" stroke="white" stroke-width="11"/>
<path d="M1317 193.728L1393.63 217.266" stroke="white" stroke-width="11"/>
</svg>
